<svg xmlns="http://www.w3.org/2000/svg" xmlns:xlink="http://www.w3.org/1999/xlink" width="500" zoomAndPan="magnify" viewBox="0 0 375 374.999991" height="500" preserveAspectRatio="xMidYMid meet" version="1.0"><defs><clipPath id="dbe33eee86"><path d="M 18.941406 18.75 L 355.691406 18.75 L 355.691406 293 L 18.941406 293 Z M 18.941406 18.75 " clip-rule="nonzero"/></clipPath><clipPath id="e5cc667d51"><path d="M 32 271 L 182 271 L 182 356.25 L 32 356.25 Z M 32 271 " clip-rule="nonzero"/></clipPath></defs><path fill="#80d2ff" d="M 145.628906 162.460938 L 136.429688 147.878906 L 192.011719 206.207031 L 178.597656 244.964844 L 164.796875 253.789062 L 149.847656 251.488281 L 140.648438 221.558594 Z M 145.628906 162.460938 " fill-opacity="1" fill-rule="nonzero"/><path fill="#80d2ff" d="M 38.683594 130.226562 L 36 109.890625 L 36 104.515625 L 97.332031 159.773438 L 91.582031 210.8125 L 65.132812 281.035156 L 49.417969 284.105469 L 31.015625 266.070312 L 27.949219 210.8125 Z M 38.683594 130.226562 " fill-opacity="1" fill-rule="nonzero"/><path fill="#81d2ff" d="M 264.460938 53.480469 L 264.460938 33.140625 L 346.492188 92.238281 L 344.574219 139.054688 L 330.390625 177.425781 L 253.726562 104.515625 Z M 264.460938 53.480469 " fill-opacity="1" fill-rule="nonzero"/><path fill="#1690d5" d="M 235.328125 32.375 C 241.769531 26.234375 249.765625 26.234375 252.960938 27 L 264.460938 32.375 C 265.355469 38.003906 267.066406 49.871094 266.761719 52.328125 C 266.453125 54.785156 255.898438 87.886719 250.660156 104.132812 L 315.058594 164.761719 L 273.277344 293.699219 L 255.261719 324.015625 L 226.894531 331.304688 L 199.296875 307.898438 L 160.195312 257.628906 C 166.328125 254.304688 179.667969 246.578125 183.960938 242.277344 C 188.257812 237.980469 199.550781 179.34375 204.664062 150.566406 L 221.144531 60.386719 C 223.191406 53.609375 228.886719 38.515625 235.328125 32.375 Z M 235.328125 32.375 " fill-opacity="1" fill-rule="nonzero"/><path fill="#1690d4" d="M 105.382812 157.089844 L 119.179688 145.960938 L 140.648438 151.714844 L 148.695312 162.078125 L 140.648438 211.195312 L 143.714844 246.117188 L 176.679688 284.488281 L 161.730469 320.945312 L 131.832031 348.191406 L 105.382812 348.191406 L 77.398438 324.015625 L 53.25 286.792969 L 75.097656 268.757812 L 94.648438 193.542969 Z M 105.382812 157.089844 " fill-opacity="1" fill-rule="nonzero"/><g clip-path="url(#dbe33eee86)"><path stroke-linecap="round" transform="matrix(0.191662, 0, 0, 0.191869, 18.941874, 18.751489)" fill="none" stroke-linejoin="round" d="M 74.4899 431.276795 C 72.900187 428.019359 78.036184 437.608437 79.523993 440.92695 C 82.418086 447.319668 84.823037 453.956695 87.309512 460.512285 C 94.789318 480.077261 100.006839 500.863776 102.493313 521.650291 C 110.299214 586.025375 101.881885 650.604048 92.934652 714.40908 C 69.51695 881.434122 15.527837 1073.785732 46.180773 1242.398774 C 59.12267 1313.471961 117.677115 1404.130483 202.747163 1389.818123 C 265.438938 1379.251814 296.540255 1300.706883 312.376246 1247.997493 C 354.238699 1108.457068 372.316594 964.478387 406.495432 823.41104 C 422.433328 757.610828 455.552358 658.991946 536.485075 651.866304 C 607.879512 645.555022 664.457005 698.753027 669.593002 768.604675 C 678.336426 886.869969 625.855502 1003.99516 639.082733 1123.054455 C 649.660442 1218.395541 741.028201 1282.46524 817.742064 1201.31436 C 890.583548 1124.255634 911.43325 1000.737724 929.409241 900.57156 C 961.916842 719.295234 989.716446 537.18419 1021.347666 355.765351 C 1038.773371 255.639905 1058.379837 75.15758 1178.708913 42.847884 C 1372.22595 -9.108224 1264.1662 299.941038 1244.478211 379.137456 C 1238.282405 404.056843 1221.182795 443.349668 1228.86641 469.266645 C 1239.994404 506.890033 1288.765996 536.899165 1316.850933 560.922757 C 1391.547082 624.768507 1468.709326 686.069385 1541.469286 752.073186 C 1554.55385 763.922111 1630.269047 841.265862 1641.030184 831.188169 C 1657.599889 815.613552 1675.82045 720.516773 1682.383113 695.862052 C 1754.103645 426.227769 1739.49051 400.697612 1466.467422 191.89595 C 1394.441176 136.845278 1316.932457 89.123837 1251.102017 43.702961 " stroke="#0e6799" stroke-width="74" stroke-opacity="1" stroke-miterlimit="1.5"/></g><g clip-path="url(#e5cc667d51)"><path stroke-linecap="round" transform="matrix(0.191662, 0, 0, 0.191869, 18.941874, 18.751489)" fill="none" stroke-linejoin="round" d="M 811.6074 1366.079556 C 809.711973 1381.755968 789.881317 1428.84628 788.739984 1431.777973 C 778.325324 1458.570386 768.460948 1483.408337 756.59924 1509.569622 C 710.293742 1611.547735 635.088069 1732.602208 508.624329 1720.753284 C 454.574073 1715.683899 408.329717 1670.079792 369.279834 1635.225224 C 274.447314 1550.5726 193.962977 1449.693872 107.099406 1356.816222 " stroke="#0e6799" stroke-width="74" stroke-opacity="1" stroke-miterlimit="1.5"/></g><path stroke-linecap="round" transform="matrix(0.191662, 0, 0, 0.191869, 18.941874, 18.751489)" fill="none" stroke-linejoin="round" d="M 1528.14015 738.615903 C 1522.94301 737.27221 1513.608539 798.776678 1512.772921 804.070012 C 1511.101683 814.982423 1509.471208 825.833758 1507.270066 836.624015 C 1500.483213 869.727711 1492.065884 902.607458 1482.792556 935.100384 C 1454.422286 1034.289317 1427.172968 1133.946507 1397.518698 1232.748619 C 1379.400041 1293.133344 1355.513578 1352.133657 1331.382544 1410.339971 C 1315.93379 1447.515462 1297.570562 1481.861055 1271.625624 1512.827058 C 1233.064884 1558.756909 1168.23311 1619.060197 1103.27905 1615.069838 C 1047.048033 1611.608812 996.768251 1562.279012 958.289034 1525.897521 C 865.535371 1438.211409 766.280187 1299.220677 677.56195 1207.462771 " stroke="#0e6799" stroke-width="74" stroke-opacity="1" stroke-miterlimit="1.5"/><path stroke-linecap="round" transform="matrix(0.191662, 0, 0, 0.191869, 18.941874, 18.751489)" fill="none" stroke-linejoin="round" d="M 84.252371 420.486537 C 83.457514 419.122486 86.963036 422.135615 88.247035 423.051768 C 91.650653 425.515205 94.687413 428.426538 97.764935 431.236077 C 106.059978 438.687462 114.395783 446.118489 122.588921 453.712387 C 148.289288 477.450953 172.78718 502.594289 197.142404 527.696907 C 269.555888 602.312556 348.083655 671.329486 415.931808 750.322314 " stroke="#0e6799" stroke-width="74" stroke-opacity="1" stroke-miterlimit="1.5"/><path stroke-linecap="round" transform="matrix(0.191662, 0, 0, 0.191869, 18.941874, 18.751489)" fill="none" stroke-linejoin="round" d="M 628.015882 683.483795 C 628.83112 678.903025 635.088069 690.14118 638.410162 693.602206 C 645.441587 700.89072 652.371107 708.260669 659.300627 715.589901 C 679.885378 737.394364 700.633176 759.097033 721.319831 780.84042 C 783.01294 845.785555 845.888144 909.773818 908.233443 974.230337 " stroke="#0e6799" stroke-width="74" stroke-opacity="1" stroke-miterlimit="1.5"/></svg>